<mxfile host="Electron" modified="2024-07-26T08:26:22.039Z" agent="Mozilla/5.0 (X11; Linux x86_64) AppleWebKit/537.36 (KHTML, like Gecko) draw.io/22.1.2 Chrome/114.0.5735.289 Electron/25.9.4 Safari/537.36" etag="gHuqBrH41orq1eIAHicw" version="22.1.2" type="device">
  <diagram name="Page-1" id="HwFQvSDbegwS_7vy1_F5">
    <mxGraphModel dx="960" dy="949" grid="1" gridSize="10" guides="1" tooltips="1" connect="1" arrows="1" fold="1" page="1" pageScale="1" pageWidth="850" pageHeight="1100" math="0" shadow="0">
      <root>
        <mxCell id="0" />
        <mxCell id="1" parent="0" />
        <mxCell id="FrDKX07wnlq-_4gBOqGV-3" value="VPC" style="points=[[0,0],[0.25,0],[0.5,0],[0.75,0],[1,0],[1,0.25],[1,0.5],[1,0.75],[1,1],[0.75,1],[0.5,1],[0.25,1],[0,1],[0,0.75],[0,0.5],[0,0.25]];outlineConnect=0;gradientColor=none;html=1;whiteSpace=wrap;fontSize=12;fontStyle=0;container=1;pointerEvents=0;collapsible=0;recursiveResize=0;shape=mxgraph.aws4.group;grIcon=mxgraph.aws4.group_vpc2;strokeColor=#8C4FFF;fillColor=none;verticalAlign=top;align=left;spacingLeft=30;fontColor=#AAB7B8;dashed=0;" parent="1" vertex="1">
          <mxGeometry x="450" y="255" width="280" height="220" as="geometry" />
        </mxCell>
        <mxCell id="FrDKX07wnlq-_4gBOqGV-2" value="" style="outlineConnect=0;dashed=0;verticalLabelPosition=bottom;verticalAlign=top;align=center;html=1;shape=mxgraph.aws3.ec2;fillColor=#F58534;gradientColor=none;" parent="FrDKX07wnlq-_4gBOqGV-3" vertex="1">
          <mxGeometry x="73.38" y="45" width="133.25" height="111.5" as="geometry" />
        </mxCell>
        <mxCell id="FrDKX07wnlq-_4gBOqGV-10" value="Script" style="html=1;whiteSpace=wrap;strokeColor=none;fillColor=#0079D6;labelPosition=center;verticalLabelPosition=middle;verticalAlign=top;align=center;fontSize=12;outlineConnect=0;spacingTop=-6;fontColor=#FFFFFF;sketch=0;shape=mxgraph.sitemap.script;" parent="FrDKX07wnlq-_4gBOqGV-3" vertex="1">
          <mxGeometry x="50" y="105" width="60" height="40" as="geometry" />
        </mxCell>
        <mxCell id="3xtFpQMBTaLiIJr2XKLA-1" value="" style="strokeWidth=2;html=1;shape=mxgraph.flowchart.database;whiteSpace=wrap;" vertex="1" parent="FrDKX07wnlq-_4gBOqGV-3">
          <mxGeometry x="140" y="125" width="40" height="50" as="geometry" />
        </mxCell>
        <mxCell id="3xtFpQMBTaLiIJr2XKLA-2" value="" style="dashed=0;outlineConnect=0;html=1;align=center;labelPosition=center;verticalLabelPosition=bottom;verticalAlign=top;shape=mxgraph.weblogos.wordpress;fillColor=#00A7DA;strokeColor=none" vertex="1" parent="FrDKX07wnlq-_4gBOqGV-3">
          <mxGeometry x="180" y="45" width="50" height="50.4" as="geometry" />
        </mxCell>
        <mxCell id="FrDKX07wnlq-_4gBOqGV-6" value="" style="shape=image;verticalLabelPosition=bottom;labelBackgroundColor=default;verticalAlign=top;aspect=fixed;imageAspect=0;image=https://www.aviator.co/blog/wp-content/uploads/2023/01/terraform.png;" parent="1" vertex="1">
          <mxGeometry x="228" y="314" width="109" height="81.78" as="geometry" />
        </mxCell>
        <mxCell id="FrDKX07wnlq-_4gBOqGV-9" style="edgeStyle=orthogonalEdgeStyle;rounded=0;orthogonalLoop=1;jettySize=auto;html=1;exitX=1;exitY=0.5;exitDx=0;exitDy=0;exitPerimeter=0;entryX=0;entryY=0.5;entryDx=0;entryDy=0;" parent="1" source="FrDKX07wnlq-_4gBOqGV-7" target="FrDKX07wnlq-_4gBOqGV-3" edge="1">
          <mxGeometry relative="1" as="geometry" />
        </mxCell>
        <mxCell id="FrDKX07wnlq-_4gBOqGV-7" value="" style="sketch=0;aspect=fixed;pointerEvents=1;shadow=0;dashed=0;html=1;strokeColor=none;labelPosition=center;verticalLabelPosition=bottom;verticalAlign=top;align=center;fillColor=#00188D;shape=mxgraph.azure.computer" parent="1" vertex="1">
          <mxGeometry x="220" y="310" width="122.22" height="110" as="geometry" />
        </mxCell>
      </root>
    </mxGraphModel>
  </diagram>
</mxfile>
